<svg width="204" height="53" viewBox="0 0 204 53" fill="none" xmlns="http://www.w3.org/2000/svg">
<path d="M80.0711 12.3373H79.9497L80.2167 23.1906H74.8264V3.98017H82.3777L85.4856 14.318H85.607L88.3022 3.98017H96.0963V23.1906H90.4875L90.6574 12.3915L90.5117 12.3644L87.3067 23.1906H83.2275L80.0711 12.3373ZM97.3056 23.1906L104.08 3.98017H110.223L116.924 23.1906H110.636L109.737 20.3687H104.274L103.424 23.1906H97.3056ZM108.45 15.4305L107.066 10.6821L105.658 15.4305H108.45ZM129.195 23.1906L126.088 17.574L123.101 23.1906H116.254L122.397 13.1784L116.57 3.98017H123.538L126.258 9.02698L128.856 3.98017H135.654L129.924 13.097L136.261 23.1906H129.195ZM137.568 23.1906V3.98017H143.395V23.1906H137.568ZM151.846 12.3373H151.724L151.991 23.1906H146.601V3.98017H154.152L157.26 14.318H157.382L160.077 3.98017H167.871V23.1906H162.262L162.432 12.3915L162.286 12.3644L159.081 23.1906H155.002L151.846 12.3373ZM178.793 23.7333C176.22 23.7333 174.244 22.9826 172.869 21.4812C171.509 19.9798 170.829 18.0353 170.829 15.6475V3.98017H176.608V14.9421C176.608 15.8646 176.802 16.5881 177.191 17.1127C177.595 17.6192 178.162 17.8725 178.89 17.8725C179.619 17.8725 180.177 17.6192 180.566 17.1127C180.97 16.5881 181.173 15.8646 181.173 14.9421V3.98017H186.927V15.6475C186.927 18.0172 186.215 19.9617 184.791 21.4812C183.382 22.9826 181.383 23.7333 178.793 23.7333ZM195.532 23.7333C194.172 23.7333 192.844 23.471 191.55 22.9464C190.271 22.4218 189.186 21.7163 188.296 20.83L191.817 16.5429C192.237 17.0675 192.788 17.5107 193.468 17.8725C194.148 18.2343 194.828 18.4151 195.508 18.4151C196.365 18.4151 196.795 18.1167 196.795 17.5197C196.795 17.1761 196.608 16.8957 196.236 16.6786C195.864 16.4615 195.038 16.1179 193.76 15.6475C192.383 15.1411 191.299 14.4627 190.506 13.6125C189.712 12.7623 189.316 11.5684 189.316 10.0309C189.316 8.89131 189.526 7.88738 189.947 7.01911C190.385 6.13276 190.959 5.43632 191.671 4.92984C192.383 4.42335 193.144 4.05252 193.954 3.81737C194.779 3.56412 195.637 3.4375 196.528 3.4375C197.676 3.4375 198.834 3.69075 200 4.19724C201.181 4.70372 202.209 5.40015 203.083 6.28651L199.49 10.3837C199.117 9.87716 198.647 9.4792 198.082 9.18978C197.531 8.88227 197.013 8.72851 196.528 8.72851C195.588 8.72851 195.119 9.01793 195.119 9.59678C195.119 9.86812 195.232 10.0761 195.459 10.2209C195.685 10.3475 196.139 10.5374 196.819 10.7907C197.288 10.9715 197.66 11.1163 197.936 11.2248C198.21 11.3153 198.575 11.469 199.028 11.6861C199.497 11.9031 199.87 12.1111 200.145 12.3101C200.437 12.5091 200.752 12.7714 201.092 13.097C201.448 13.4226 201.724 13.7573 201.918 14.1009C202.112 14.4446 202.274 14.8607 202.403 15.3491C202.549 15.8194 202.622 16.3259 202.622 16.8685C202.622 19.0392 201.918 20.7306 200.51 21.9425C199.101 23.1364 197.442 23.7333 195.532 23.7333ZM80.0711 37.3835H79.9497L80.2167 48.2368H74.8264V29.0264H82.3777L85.4856 39.3642H85.607L88.3022 29.0264H96.0963V48.2368H90.4875L90.6574 37.4377L90.5117 37.4106L87.3067 48.2368H83.2275L80.0711 37.3835ZM99.2967 48.2368V29.0264H111.121V34.3988H104.736V36.0539H110.733V41.0736H104.736V42.8644H111.534V48.2368H99.2967ZM120.822 48.2368H113.927V29.0264H120.337C121.47 29.0264 122.522 29.1169 123.493 29.2977C124.464 29.4786 125.396 29.8042 126.286 30.2745C127.192 30.7267 127.952 31.3056 128.568 32.0111C129.199 32.6985 129.701 33.6029 130.073 34.7244C130.446 35.8278 130.632 37.0941 130.632 38.5231C130.632 40.1511 130.365 41.6072 129.831 42.8916C129.296 44.1577 128.559 45.1708 127.621 45.9305C126.698 46.6902 125.663 47.2691 124.513 47.667C123.363 48.0469 122.134 48.2368 120.822 48.2368ZM120.774 34.5073H119.487V42.7016H120.555C123.372 42.7016 124.78 41.2907 124.78 38.4688C124.78 37.2387 124.416 36.271 123.688 35.5655C122.975 34.8601 122.004 34.5073 120.774 34.5073ZM133.062 48.2368V29.0264H138.889V48.2368H133.062ZM140.105 48.2368L146.879 29.0264H153.022L159.724 48.2368H153.435L152.537 45.415H147.073L146.224 48.2368H140.105ZM151.25 40.4767L149.866 35.7283L148.457 40.4767H151.25Z" fill="white"/>
<path d="M46.7884 4.79297L24.9358 19.0057V49.5631L46.7884 33.9291V4.79297Z" fill="#0D0D0D"/>
<path d="M3.08321 6.14844L24.9358 19.7151V48.8835L3.08321 33.9602V6.14844Z" fill="#0D0D0D"/>
<path d="M24.9358 35.3191V48.8858L35.8621 41.4241V27.8574L24.9358 35.3191Z" fill="white"/>
<path d="M24.9358 35.3191V48.8858L14.0095 41.4241V27.8574L24.9358 35.3191Z" fill="white"/>
<path d="M5.31487 5.78613L24.9487 17.4014L45.184 5.77344L48.1801 4.05176V35.7373L47.2572 36.3271L26.0112 49.8936L24.9194 50.5908L23.8363 49.8789L3.19768 36.3125L2.29631 35.7197V4.00098L5.31487 5.78613Z" stroke="white" stroke-width="4"/>
</svg>
